<svg width="20" height="19" viewBox="0 0 20 19" fill="none" xmlns="http://www.w3.org/2000/svg">
<path d="M19.125 0.270508C19.6082 0.270508 20 0.843844 20 1.55109C20 2.1994 19.6708 2.73519 19.2437 2.81998L19.125 2.83167H0.875C0.391751 2.83167 0 2.25834 0 1.55109C0 0.902782 0.32918 0.366994 0.756268 0.282198L0.875 0.270508H19.125Z" fill="white"/>
<path d="M19.125 8.02686C19.6082 8.02686 20 8.60019 20 9.30744C20 9.95575 19.6708 10.4915 19.2437 10.5763L19.125 10.588H0.875C0.391751 10.588 0 10.0147 0 9.30744C0 8.65913 0.32918 8.12334 0.756268 8.03855L0.875 8.02686H19.125Z" fill="white"/>
<path d="M19.125 15.7842C19.6082 15.7842 20 16.3575 20 17.0648C20 17.7131 19.6708 18.2489 19.2437 18.3337L19.125 18.3453H0.875C0.391751 18.3453 0 17.772 0 17.0648C0 16.4165 0.32918 15.8807 0.756268 15.7959L0.875 15.7842H19.125Z" fill="white"/>
</svg>
