<svg width="20" height="19" viewBox="0 0 20 19" fill="none" xmlns="http://www.w3.org/2000/svg">
<path d="M19.125 0C19.6082 0 20 0.573337 20 1.28058C20 1.92889 19.6708 2.46468 19.2437 2.54948L19.125 2.56117H0.875C0.391751 2.56117 0 1.98783 0 1.28058C0 0.632274 0.32918 0.0964861 0.756268 0.0116902L0.875 0H19.125Z" fill="#242A30"/>
<path d="M19.125 7.75635C19.6082 7.75635 20 8.32968 20 9.03693C20 9.68524 19.6708 10.221 19.2437 10.3058L19.125 10.3175H0.875C0.391751 10.3175 0 9.74418 0 9.03693C0 8.38862 0.32918 7.85283 0.756268 7.76804L0.875 7.75635H19.125Z" fill="#242A30"/>
<path d="M19.125 15.5137C19.6082 15.5137 20 16.087 20 16.7943C20 17.4426 19.6708 17.9784 19.2437 18.0632L19.125 18.0748H0.875C0.391751 18.0748 0 17.5015 0 16.7943C0 16.1459 0.32918 15.6102 0.756268 15.5254L0.875 15.5137H19.125Z" fill="#242A30"/>
</svg>
